<svg xmlns="http://www.w3.org/2000/svg" viewBox="0 0 334.94 72.58"><defs><style>.cls-1{font-size:72px;font-family:BigJohn, Big John;}.cls-1,.cls-4{fill:#f05622;}.cls-2{letter-spacing:0.02em;}.cls-3{letter-spacing:0.32em;}</style></defs><g id="Layer_2" data-name="Layer 2"><g id="LOGO"><text class="cls-1" transform="translate(0 61.2)">O<tspan class="cls-2" x="62.71" y="0">R</tspan><tspan x="118.8" y="0">AN</tspan><tspan class="cls-3" x="235.8" y="0"> </tspan><tspan x="291.24" y="0">E</tspan></text><path class="cls-4" d="M263.3,13v9.5h10.44a12.77,12.77,0,0,1-20.74,0A12.56,12.56,0,0,1,250.56,15a12.69,12.69,0,0,1,2.63-7.83H237.52a27.07,27.07,0,0,0,15.26,32.69,26.54,26.54,0,0,0,5.48,1.66,26.7,26.7,0,0,0,10.08,0,27,27,0,0,0,22-26.52V13Z"/><path class="cls-4" d="M268.34,41.55a26.94,26.94,0,0,0-15.6,1.68,27,27,0,0,0-15.49,18h15.26a12.88,12.88,0,0,1,19.79-2.35l10-9.93A27,27,0,0,0,268.34,41.55Z"/></g></g></svg>